<?xml version="1.0" standalone="no"?>
<!DOCTYPE svg PUBLIC "-//W3C//DTD SVG 20010904//EN"
 "http://www.w3.org/TR/2001/REC-SVG-20010904/DTD/svg10.dtd">
<svg version="1.0" xmlns="http://www.w3.org/2000/svg"
 width="1624.000000pt" height="1624.000000pt" viewBox="0 0 1624.000000 1624.000000"
 preserveAspectRatio="xMidYMid meet">
<metadata>
Created by potrace 1.14, written by Peter Selinger 2001-2017
</metadata>
<g transform="translate(0.000000,1624.000000) scale(0.100000,-0.100000)"
fill="#000000" stroke="none">
<path d="M7625 16219 c-1742 -110 -3372 -759 -4709 -1875 -948 -791 -1718
-1813 -2218 -2943 -374 -844 -588 -1701 -670 -2681 -18 -210 -17 -991 0 -1205
81 -981 296 -1836 677 -2695 508 -1146 1300 -2183 2285 -2991 1636 -1343 3750
-1987 5884 -1793 1603 145 3142 776 4391 1800 393 321 816 745 1139 1139 613
746 1099 1622 1408 2535 224 664 349 1287 410 2045 16 208 16 907 0 1125 -77
1009 -305 1909 -706 2793 -962 2120 -2812 3742 -5031 4412 -617 186 -1226 294
-1890 335 -186 12 -781 11 -970 -1z m-50 -2409 c777 -49 1434 -289 2015 -736
228 -176 531 -501 697 -749 268 -401 435 -851 489 -1315 22 -193 15 -500 -15
-680 -88 -517 -277 -917 -585 -1237 -60 -63 -143 -141 -185 -175 -393 -318
-956 -517 -1506 -534 l-170 -5 55 47 c103 88 375 369 451 464 366 460 587 964
668 1525 86 591 18 1158 -198 1653 -229 528 -668 971 -1175 1186 -260 111
-493 159 -766 158 -371 -1 -670 -66 -955 -208 -487 -242 -799 -677 -871 -1214
-50 -379 47 -816 247 -1105 47 -69 205 -233 284 -296 194 -155 596 -358 859
-434 l59 -17 -5 -87 c-21 -353 -369 -734 -803 -880 -240 -80 -538 -83 -761 -7
-526 179 -914 761 -1000 1502 -19 166 -14 482 10 637 148 939 726 1758 1539
2182 495 259 1016 363 1622 325z m4315 -1484 c169 -59 303 -193 362 -364 33
-97 33 -268 -1 -365 -64 -187 -217 -329 -407 -377 -202 -52 -395 1 -545 150
-121 119 -173 242 -173 410 0 165 61 308 181 420 155 146 385 195 583 126z
m-36 -1842 c94 -23 174 -71 256 -154 114 -114 170 -247 170 -405 0 -411 -434
-694 -809 -529 -267 118 -407 417 -324 697 25 86 74 168 143 238 152 153 347
206 564 153z m-4719 -1280 c-394 -1439 -714 -3085 -820 -4214 -32 -344 -60
-492 -126 -657 -170 -429 -492 -737 -916 -879 -528 -177 -1187 -83 -1629 232
-186 132 -309 292 -366 474 -33 106 -33 309 0 423 159 556 769 844 1531 722
212 -34 591 -130 871 -220 61 -20 114 -35 116 -32 7 7 21 103 48 337 111 947
128 1756 61 2875 -14 226 -25 412 -25 415 0 3 66 5 148 6 266 1 491 72 702
222 148 105 335 315 425 477 21 36 39 64 41 62 2 -2 -25 -111 -61 -243z m470
-1066 c625 -250 1284 -432 1853 -512 99 -14 191 -26 204 -26 l23 0 -3 -182
c-7 -371 50 -666 184 -946 74 -157 131 -239 249 -361 140 -144 286 -239 479
-312 l54 -20 7 -57 c12 -104 65 -360 96 -464 148 -503 331 -753 684 -930 251
-127 557 -191 912 -192 164 -1 190 -3 180 -15 -30 -37 -204 -173 -312 -244
-232 -152 -488 -257 -726 -298 -105 -18 -150 -20 -294 -16 -182 6 -261 19
-410 68 -187 63 -414 195 -553 324 -300 278 -483 776 -509 1381 l-6 152 -494
183 c-271 101 -497 185 -502 188 -5 4 -3 52 6 116 22 155 21 513 -1 673 -28
206 -95 379 -220 566 -207 308 -570 644 -1003 925 -72 47 -140 91 -150 98 -10
7 9 1 42 -13 33 -15 128 -53 210 -86z"/>
</g>
</svg>
